<svg id="Layer_1" data-name="Layer 1" xmlns="http://www.w3.org/2000/svg" xmlns:xlink="http://www.w3.org/1999/xlink" viewBox="0 0 1280 720"><defs><style>.cls-1{fill:#25367b;}.cls-2{fill:#fff;}.cls-3{fill:#9dc6d4;}.cls-4{fill:url(#linear-gradient);}</style><linearGradient id="linear-gradient" x1="-11502" y1="-14742" x2="-11502" y2="-15462" gradientTransform="translate(12142 15462)" gradientUnits="userSpaceOnUse"><stop offset="0" stop-color="#fff"/><stop offset="0.3" stop-color="#fff" stop-opacity="0"/><stop offset="0.7" stop-color="#fff" stop-opacity="0"/><stop offset="1" stop-color="#fff"/></linearGradient></defs><title>Artboard 1</title><polygon class="cls-1" points="460 720 820 0 1280 0 1280 720 460 720"/><polygon class="cls-2" points="1280 720 1280 0 1160 0 800 720 1280 720"/><polygon class="cls-2" points="780 720 1140 0 1020 0 660 720 780 720"/><polygon class="cls-1" points="821 0 461 720 0 720 0 0 821 0"/><polygon class="cls-3" points="260 720 620 0 500 0 140 720 260 720"/><polygon class="cls-3" points="0 0 0 720 120 720 480 0 0 0"/><rect class="cls-4" width="1280" height="720" transform="translate(1280 720) rotate(-180)"/></svg>